<svg width="88" height="88" viewBox="0 0 88 88" fill="none" xmlns="http://www.w3.org/2000/svg">
<g filter="url(#filter0_d_4151_145)">
<rect x="4.75" y="0.75" width="78.5" height="78.5" rx="9.25" stroke="#01BEDB" stroke-width="1.5" shape-rendering="crispEdges"/>
<path d="M54 43H34V38H54V43Z" fill="#01BEDB"/>
<path fill-rule="evenodd" clip-rule="evenodd" d="M44 18C56.144 18 66 27.856 66 40C66 52.144 56.144 62 44 62C31.856 62 22 52.144 22 40C22 27.856 31.856 18 44 18ZM44 23.2803C34.76 23.2803 27.2803 30.76 27.2803 40C27.2803 49.24 34.76 56.7197 44 56.7197C53.24 56.7197 60.7197 49.24 60.7197 40C60.7197 30.76 53.24 23.2803 44 23.2803Z" fill="#01BEDB"/>
</g>
<defs>
<filter id="filter0_d_4151_145" x="0" y="0" width="88" height="88" filterUnits="userSpaceOnUse" color-interpolation-filters="sRGB">
<feFlood flood-opacity="0" result="BackgroundImageFix"/>
<feColorMatrix in="SourceAlpha" type="matrix" values="0 0 0 0 0 0 0 0 0 0 0 0 0 0 0 0 0 0 127 0" result="hardAlpha"/>
<feOffset dy="4"/>
<feGaussianBlur stdDeviation="2"/>
<feComposite in2="hardAlpha" operator="out"/>
<feColorMatrix type="matrix" values="0 0 0 0 0 0 0 0 0 0 0 0 0 0 0 0 0 0 0.25 0"/>
<feBlend mode="normal" in2="BackgroundImageFix" result="effect1_dropShadow_4151_145"/>
<feBlend mode="normal" in="SourceGraphic" in2="effect1_dropShadow_4151_145" result="shape"/>
</filter>
</defs>
</svg>
