<svg width="31" height="31" viewBox="0 0 31 31" fill="none" xmlns="http://www.w3.org/2000/svg">
<path d="M22.8322 13.5832V17.2878H8.01411V13.5832H22.8322ZM15.4355 3.70452C8.96803 3.70452 3.70452 8.96803 3.70452 15.4355C3.70452 21.903 8.96803 27.1665 15.4355 27.1665C21.903 27.1665 27.1665 21.903 27.1665 15.4355C27.1665 8.96803 21.903 3.70452 15.4355 3.70452ZM15.4355 0C23.959 0 30.871 6.91202 30.871 15.4355C30.871 23.959 23.959 30.871 15.4355 30.871C6.91202 30.871 0 23.959 0 15.4355C0 6.91202 6.91202 0 15.4355 0Z" fill="#C6007E"/>
</svg>
