<svg width="34" height="34" viewBox="0 0 34 34" fill="none" xmlns="http://www.w3.org/2000/svg">
<g clip-path="url(#clip0_4151_822)">
<path d="M26.8137 20.1103C26.8137 27.5142 20.8108 33.5171 13.4068 33.5171C6.00291 33.5171 0 27.5142 0 20.1103C0 12.7063 6.00291 6.70342 13.4068 6.70342C14.3319 6.70342 15.2369 6.79727 16.1117 6.97491L13.6984 9.38814C13.6012 9.38478 13.504 9.38478 13.4068 9.38478C7.49442 9.38478 2.68137 14.1978 2.68137 20.1103C2.68137 26.0227 7.49442 30.8357 13.4068 30.8357C19.3193 30.8357 24.1323 26.0227 24.1323 20.1103C24.1323 20.0131 24.1323 19.9159 24.129 19.8187L26.5422 17.4088C26.7198 18.2802 26.8137 19.1852 26.8137 20.1103ZM26.8807 0L11.3623 15.5184L17.9987 22.1548L33.5171 6.63638L26.8807 0ZM9.46523 17.4155L8.0441 25.473L16.1016 24.0519L9.46523 17.4155Z" fill="#01BEDB"/>
</g>
<defs>
<clipPath id="clip0_4151_822">
<rect width="33.5171" height="33.5171" fill="white"/>
</clipPath>
</defs>
</svg>
